<svg width="262" height="136" viewBox="0 0 262 136" fill="none" xmlns="http://www.w3.org/2000/svg">
<g filter="url(#filter0_d_1029_31654)">
<path d="M214.445 90.3171H214.444H47.6087H47.6079C46.4545 90.3183 45.3479 89.8615 44.5314 89.0472C43.7151 88.2329 43.2556 87.128 43.254 85.9753V45.3742C43.2556 44.2207 43.715 43.1149 44.5314 42.2996C45.3478 41.4842 46.4546 41.026 47.6087 41.0257C47.6088 41.0257 47.6088 41.0257 47.6089 41.0257H214.443C215.014 41.0257 215.579 41.1382 216.107 41.3567C216.634 41.5752 217.114 41.8955 217.518 42.2993C217.921 42.703 218.242 43.1823 218.46 43.7098C218.678 44.2373 218.791 44.8026 218.791 45.3735L218.792 85.9758C218.792 86.5462 218.68 87.1111 218.461 87.6381C218.242 88.1651 217.922 88.6439 217.518 89.0471C217.115 89.4503 216.635 89.77 216.108 89.9879C215.581 90.2059 215.015 90.3177 214.445 90.3171Z" stroke="#989898" stroke-width="1.5" shape-rendering="crispEdges"/>
</g>
<path d="M81.3815 65.3919C81.3429 61.1074 84.8906 59.023 85.0528 58.9259C83.0436 55.9974 79.9295 55.5973 78.8351 55.5654C76.2196 55.2902 73.6826 57.13 72.3502 57.13C70.9913 57.13 68.9396 55.592 66.7283 55.6372C63.8827 55.681 61.2207 57.3281 59.7607 59.8857C56.7476 65.1007 58.9948 72.7644 61.8816 76.9797C63.3256 79.0455 65.013 81.3493 67.2216 81.2682C69.3824 81.1804 70.1895 79.8923 72.797 79.8923C75.3806 79.8923 76.1385 81.2682 78.391 81.2163C80.71 81.1804 82.17 79.1426 83.5635 77.0595C85.2323 74.6946 85.9025 72.3629 85.9291 72.2433C85.8759 72.2247 81.4267 70.5258 81.3815 65.3919ZM77.1265 52.7924C78.2886 51.3394 79.0838 49.3627 78.8631 47.3567C77.181 47.4311 75.0774 48.5199 73.8661 49.9409C72.7943 51.1932 71.837 53.2457 72.0843 55.1759C73.9738 55.3168 75.9138 54.2227 77.1265 52.7924Z" fill="white"/>
<path d="M112.679 80.9717H109.659L108.005 75.7753H102.255L100.679 80.9717H97.7394L103.437 63.2809H106.956L112.679 80.9717ZM107.506 73.5952L106.01 68.9758C105.852 68.5038 105.554 67.3925 105.118 65.6431H105.065C104.889 66.3955 104.609 67.5068 104.224 68.9758L102.754 73.5952H107.506ZM127.303 74.4367C127.303 76.6062 126.713 78.321 125.534 79.5799C124.478 80.7005 123.166 81.2602 121.601 81.2602C119.911 81.2602 118.695 80.658 117.957 79.451V86.1442H115.123V72.4081C115.123 71.0455 115.087 69.6484 115.017 68.2154H117.511L117.669 70.2373H117.722C118.667 68.7139 120.102 67.9522 122.028 67.9522C123.533 67.9522 124.789 68.5464 125.795 69.7361C126.799 70.9286 127.303 72.4945 127.303 74.4367ZM124.414 74.5404C124.414 73.2988 124.135 72.2752 123.574 71.4683C122.961 70.6295 122.138 70.2094 121.106 70.2094C120.407 70.2094 119.771 70.4433 119.203 70.9046C118.634 71.3699 118.262 71.9774 118.088 72.7298C118.01 73.0112 117.966 73.3008 117.956 73.5926V75.7208C117.956 76.6474 118.241 77.4304 118.81 78.0711C119.379 78.7092 120.118 79.0296 121.028 79.0296C122.095 79.0296 122.926 78.6161 123.521 77.7959C124.117 76.9731 124.414 75.8883 124.414 74.5404ZM141.978 74.4367C141.978 76.6062 141.389 78.321 140.21 79.5799C139.153 80.7005 137.842 81.2602 136.275 81.2602C134.585 81.2602 133.37 80.658 132.632 79.451V86.1442H129.797V72.4081C129.797 71.0455 129.761 69.6484 129.692 68.2154H132.185L132.343 70.2373H132.397C133.341 68.7139 134.775 67.9522 136.702 67.9522C138.206 67.9522 139.463 68.5464 140.47 69.7361C141.473 70.9286 141.978 72.4945 141.978 74.4367ZM139.089 74.5404C139.089 73.2988 138.808 72.2752 138.247 71.4683C137.634 70.6295 136.814 70.2094 135.782 70.2094C135.083 70.2094 134.447 70.4433 133.877 70.9046C133.307 71.3699 132.936 71.9774 132.762 72.7298C132.676 73.0808 132.629 73.3666 132.629 73.5926V75.7208C132.629 76.6474 132.915 77.4304 133.482 78.0711C134.051 78.7079 134.79 79.0296 135.702 79.0296C136.771 79.0296 137.602 78.6161 138.195 77.7959C138.791 76.9731 139.089 75.8883 139.089 74.5404ZM158.387 76.0093C158.387 77.5154 157.86 78.7398 156.814 79.6849C155.662 80.7165 154.055 81.2336 151.994 81.2336C150.089 81.2336 148.563 80.8667 147.411 80.1316L148.067 77.7693C149.31 78.5058 150.676 78.8727 152.162 78.8727C153.232 78.8727 154.063 78.6308 154.656 78.1509C155.25 77.6696 155.55 77.0262 155.55 76.2233C155.55 75.5041 155.302 74.902 154.814 74.4114C154.323 73.9222 153.512 73.4663 152.373 73.0475C149.274 71.8923 147.724 70.2027 147.724 67.9801C147.724 66.5284 148.272 65.34 149.365 64.4108C150.458 63.4829 151.907 63.019 153.71 63.019C155.32 63.019 156.662 63.2995 157.727 63.8591L157.016 66.1695C156.013 65.6271 154.882 65.356 153.616 65.356C152.616 65.356 151.831 65.6019 151.27 66.0911C150.798 66.5284 150.559 67.0615 150.559 67.6943C150.559 68.3922 150.831 68.9718 151.374 69.4264C151.845 69.8451 152.704 70.3011 153.946 70.7903C155.469 71.4045 156.589 72.1196 157.306 72.9412C158.028 73.7627 158.387 74.7876 158.387 76.0093ZM167.784 70.3423H164.659V76.5357C164.659 78.111 165.209 78.8966 166.313 78.8966C166.82 78.8966 167.24 78.8541 167.572 78.765L167.651 80.9172C167.092 81.1259 166.357 81.2309 165.446 81.2309C164.326 81.2309 163.452 80.8893 162.82 80.206C162.191 79.5227 161.875 78.3782 161.875 76.767V70.337H160.013V68.2101H161.875V65.8744L164.659 65.0343V68.2101H167.784V70.3423ZM181.854 74.4885C181.854 76.4493 181.293 78.0591 180.174 79.318C179.002 80.6141 177.444 81.2602 175.501 81.2602C173.626 81.2602 172.136 80.6394 171.024 79.3991C169.913 78.1562 169.357 76.5902 169.357 74.7012C169.357 72.7245 169.931 71.1054 171.076 69.8465C172.224 68.5863 173.769 67.9562 175.711 67.9562C177.584 67.9562 179.087 68.5783 180.226 69.8199C181.313 71.0243 181.854 72.5796 181.854 74.4885ZM178.916 74.5537C178.916 73.3852 178.663 72.3829 178.157 71.544C177.562 70.5311 176.711 70.0246 175.609 70.0246C174.473 70.0246 173.602 70.5311 173.009 71.544C172.501 72.3829 172.249 73.4025 172.249 74.6068C172.249 75.7767 172.501 76.7816 173.009 77.6178C173.622 78.6308 174.477 79.1372 175.585 79.1372C176.669 79.1372 177.518 78.6201 178.133 77.5925C178.654 76.7338 178.916 75.7248 178.916 74.5537ZM191.073 70.7079C190.778 70.6547 190.479 70.6284 190.18 70.6295C189.182 70.6295 188.411 71.0043 187.869 71.7594C187.398 72.4241 187.161 73.2642 187.161 74.2785V80.9717H184.326V72.2326C184.329 70.8935 184.301 69.5546 184.244 68.2167H186.713L186.817 70.6574H186.895C187.196 69.8186 187.667 69.1419 188.313 68.6354C188.904 68.1929 189.623 67.9532 190.362 67.9522C190.624 67.9522 190.86 67.9708 191.071 68.004L191.073 70.7079ZM203.752 73.99C203.759 74.4209 203.724 74.8514 203.648 75.2755H195.143C195.175 76.5357 195.588 77.5008 196.377 78.1655C197.094 78.7584 198.021 79.0561 199.159 79.0561C200.418 79.0561 201.567 78.8567 202.6 78.454L203.044 80.4201C201.837 80.9465 200.412 81.2084 198.767 81.2084C196.788 81.2084 195.235 80.6261 194.105 79.4643C192.977 78.3011 192.412 76.7378 192.412 74.7797C192.412 72.8574 192.937 71.2556 193.989 69.9781C195.09 68.6142 196.578 67.9322 198.45 67.9322C200.289 67.9322 201.682 68.6142 202.627 69.9781C203.376 71.0588 203.752 72.3988 203.752 73.99ZM201.049 73.2549C201.069 72.4134 200.882 71.6889 200.498 71.0761C200.007 70.2865 199.252 69.893 198.24 69.893C197.313 69.893 196.558 70.2772 195.984 71.0482C195.512 71.661 195.231 72.3975 195.145 73.2522L201.049 73.2549Z" fill="white"/>
<path d="M101.437 57.0266C100.649 57.0266 99.9666 56.988 99.3988 56.9229V48.3699C100.193 48.2473 100.995 48.1868 101.799 48.1891C105.05 48.1891 106.547 49.7883 106.547 52.3951C106.547 55.4021 104.779 57.0266 101.437 57.0266ZM101.913 49.2858C101.474 49.2858 101.101 49.3124 100.791 49.3762V55.878C100.959 55.9046 101.28 55.9166 101.732 55.9166C103.863 55.9166 105.075 54.7042 105.075 52.4337C105.075 50.4091 103.978 49.2858 101.913 49.2858ZM111.213 57.0917C109.381 57.0917 108.193 55.7238 108.193 53.8667C108.193 51.9312 109.406 50.5513 111.317 50.5513C113.123 50.5513 114.337 51.8541 114.337 53.7644C114.337 55.7238 113.085 57.0917 111.213 57.0917ZM111.266 51.5696C110.26 51.5696 109.615 52.5108 109.615 53.8268C109.615 55.1176 110.273 56.0588 111.253 56.0588C112.233 56.0588 112.891 55.0525 112.891 53.8002C112.891 52.5241 112.246 51.5696 111.266 51.5696ZM124.785 50.6803L122.824 56.9495H121.546L120.734 54.227C120.532 53.561 120.364 52.8853 120.23 52.2024H120.203C120.101 52.8857 119.907 53.5703 119.701 54.227L118.836 56.9495H117.545L115.7 50.6803H117.132L117.842 53.6607C118.009 54.3705 118.15 55.0405 118.267 55.6733H118.294C118.396 55.1455 118.564 54.4862 118.81 53.674L119.701 50.6816H120.836L121.688 53.6101C121.895 54.32 122.062 55.0166 122.192 55.6746H122.23C122.32 55.0299 122.462 54.3453 122.655 53.6101L123.417 50.6816L124.785 50.6803ZM132.006 56.9495H130.612V53.3496C130.612 52.2409 130.187 51.6853 129.347 51.6853C128.522 51.6853 127.954 52.3951 127.954 53.2207V56.9495H126.56V52.4722C126.56 51.9179 126.547 51.3237 126.509 50.679H127.735L127.8 51.6467H127.838C128.213 50.9767 128.974 50.5513 129.826 50.5513C131.143 50.5513 132.007 51.5576 132.007 53.1954L132.006 56.9495ZM135.848 56.9495H134.454V47.8036H135.848V56.9495ZM140.929 57.0917C139.098 57.0917 137.909 55.7238 137.909 53.8667C137.909 51.9312 139.122 50.5513 141.032 50.5513C142.839 50.5513 144.051 51.8541 144.051 53.7644C144.053 55.7238 142.8 57.0917 140.929 57.0917ZM140.981 51.5696C139.974 51.5696 139.33 52.5108 139.33 53.8268C139.33 55.1176 139.989 56.0588 140.966 56.0588C141.948 56.0588 142.605 55.0525 142.605 53.8002C142.606 52.5241 141.962 51.5696 140.981 51.5696ZM149.546 56.9495L149.444 56.2276H149.407C148.982 56.8085 148.361 57.0917 147.574 57.0917C146.45 57.0917 145.652 56.3047 145.652 55.2466C145.652 53.6992 146.994 52.899 149.317 52.899V52.7833C149.317 51.9578 148.879 51.5444 148.015 51.5444C147.397 51.5444 146.854 51.6999 146.377 52.0096L146.094 51.0937C146.673 50.7321 147.397 50.5513 148.246 50.5513C149.885 50.5513 150.712 51.4154 150.712 53.1449V55.4539C150.712 56.0867 150.74 56.5772 150.802 56.9508L149.546 56.9495ZM149.354 53.8268C147.806 53.8268 147.03 54.2017 147.03 55.091C147.03 55.7491 147.43 56.0708 147.986 56.0708C148.695 56.0708 149.354 55.5297 149.354 54.7946V53.8268ZM157.478 56.9495L157.413 55.9431H157.375C156.975 56.7035 156.302 57.0917 155.362 57.0917C153.85 57.0917 152.73 55.7624 152.73 53.892C152.73 51.9312 153.891 50.55 155.476 50.55C156.315 50.55 156.909 50.8332 157.244 51.4021H157.272V47.8036H158.667V55.2599C158.667 55.866 158.682 56.4337 158.719 56.9495H157.478ZM157.272 53.2605C157.272 52.3832 156.691 51.6347 155.804 51.6347C154.771 51.6347 154.14 52.5507 154.14 53.8401C154.14 55.1043 154.795 55.9697 155.776 55.9697C156.653 55.9697 157.272 55.208 157.272 54.3054V53.2605ZM167.511 57.0917C165.68 57.0917 164.493 55.7238 164.493 53.8667C164.493 51.9312 165.705 50.5513 167.615 50.5513C169.422 50.5513 170.634 51.8541 170.634 53.7644C170.636 55.7238 169.385 57.0917 167.511 57.0917ZM167.563 51.5696C166.558 51.5696 165.913 52.5108 165.913 53.8268C165.913 55.1176 166.571 56.0588 167.55 56.0588C168.531 56.0588 169.188 55.0525 169.188 53.8002C169.19 52.5241 168.546 51.5696 167.563 51.5696ZM178.129 56.9495H176.734V53.3496C176.734 52.2409 176.308 51.6853 175.469 51.6853C174.643 51.6853 174.077 52.3951 174.077 53.2207V56.9495H172.682V52.4722C172.682 51.9179 172.669 51.3237 172.63 50.679H173.856L173.921 51.6467H173.96C174.334 50.9767 175.096 50.55 175.947 50.55C177.263 50.55 178.129 51.5563 178.129 53.1941V56.9495ZM187.504 51.7251H185.971V54.7693C185.971 55.5443 186.24 55.9312 186.782 55.9312C187.028 55.9312 187.234 55.9046 187.401 55.866L187.439 56.9242C187.169 57.0279 186.808 57.0797 186.358 57.0797C185.26 57.0797 184.603 56.4735 184.603 54.8863V51.7251H183.688V50.6803H184.603V49.5317L185.971 49.1183V50.679H187.504V51.7251ZM194.881 56.9495H193.489V53.3762C193.489 52.2542 193.065 51.6866 192.225 51.6866C191.503 51.6866 190.83 52.1771 190.83 53.1701V56.9495H189.438V47.8036H190.83V51.5696H190.858C191.297 50.8863 191.932 50.55 192.743 50.55C194.07 50.55 194.881 51.5816 194.881 53.2207V56.9495ZM202.439 54.1499H198.258C198.284 55.337 199.07 56.007 200.233 56.007C200.852 56.007 201.421 55.9033 201.923 55.7105L202.14 56.6783C201.547 56.9362 200.849 57.0651 200.037 57.0651C198.075 57.0651 196.915 55.8262 196.915 53.9053C196.915 51.983 198.103 50.538 199.88 50.538C201.482 50.538 202.487 51.7251 202.487 53.5184C202.496 53.7301 202.48 53.942 202.439 54.1499ZM201.162 53.1568C201.162 52.1891 200.674 51.5058 199.783 51.5058C198.982 51.5058 198.349 52.2024 198.259 53.1568H201.162Z" fill="white"/>
<defs>
<filter id="filter0_d_1029_31654" x="0.503998" y="0.275681" width="261.038" height="134.791" filterUnits="userSpaceOnUse" color-interpolation-filters="sRGB">
<feFlood flood-opacity="0" result="BackgroundImageFix"/>
<feColorMatrix in="SourceAlpha" type="matrix" values="0 0 0 0 0 0 0 0 0 0 0 0 0 0 0 0 0 0 127 0" result="hardAlpha"/>
<feOffset dy="2"/>
<feGaussianBlur stdDeviation="21"/>
<feComposite in2="hardAlpha" operator="out"/>
<feColorMatrix type="matrix" values="0 0 0 0 0.733333 0 0 0 0 0.415686 0 0 0 0 0.215686 0 0 0 0.08 0"/>
<feBlend mode="normal" in2="BackgroundImageFix" result="effect1_dropShadow_1029_31654"/>
<feBlend mode="normal" in="SourceGraphic" in2="effect1_dropShadow_1029_31654" result="shape"/>
</filter>
</defs>
</svg>
